PathFileType	4	(X/Y/Z)	C:/Users/opensim2020/Desktop/walking_exp_matlab/subject01_walking12_straight_04.trc	
DataRate	CameraRate	NumFrames	NumMarkers	Units	OrigDataRate	OrigDataStartFrame	OrigNumFrames	
100.00	100.00	4	44	mm	100.00	2393	172	
Frame#	Time	LFHD			RFHD			LBHD			RBHD			C7			T10			CLAV			STRN			RBAK			LSHO			LUPA			LELB			LFRM			LWRA			LWRB			LFIN			RSHO			RUPA			RELB			RFRM			RWRA			RWRB			RFIN			LASI			RASI			LPSI			RPSI			LTHI			LKNE			LTIB			LANK			LHEE			LTOE			RTHI			RKNE			RTIB			RANK			RHEE			RTOE			*39			*40			*41			*42			*43			
		X1	Y1	Z1	X2	Y2	Z2	X3	Y3	Z3	X4	Y4	Z4	X5	Y5	Z5	X6	Y6	Z6	X7	Y7	Z7	X8	Y8	Z8	X9	Y9	Z9	X10	Y10	Z10	X11	Y11	Z11	X12	Y12	Z12	X13	Y13	Z13	X14	Y14	Z14	X15	Y15	Z15	X16	Y16	Z16	X17	Y17	Z17	X18	Y18	Z18	X19	Y19	Z19	X20	Y20	Z20	X21	Y21	Z21	X22	Y22	Z22	X23	Y23	Z23	X24	Y24	Z24	X25	Y25	Z25	X26	Y26	Z26	X27	Y27	Z27	X28	Y28	Z28	X29	Y29	Z29	X30	Y30	Z30	X31	Y31	Z31	X32	Y32	Z32	X33	Y33	Z33	X34	Y34	Z34	X35	Y35	Z35	X36	Y36	Z36	X37	Y37	Z37	X38	Y38	Z38	X39	Y39	Z39	X40	Y40	Z40	X41	Y41	Z41	X42	Y42	Z42	X43	Y43	Z43	X44	Y44	Z44	

22	0.210	1535.72375	680.09064	1659.39233	1423.53650	665.71661	1662.58252	1527.95093	799.41541	1623.25159	1407.83118	787.09094	1625.29602	1477.61108	847.82623	1428.03174	1450.54187	892.98547	1136.33228	1483.95166	705.16223	1355.45605	1492.40796	668.54486	1199.94714	1389.53125	902.23370	1235.62646	1639.96082	775.84778	1388.61230	1732.90051	797.91418	1212.27380	1755.96863	786.71637	1060.21985	1800.38684	700.98499	990.42163	1812.08765	570.40094	944.45068	1825.02991	615.48096	907.11542	1857.56128	542.92371	882.52209	1329.05823	757.18457	1389.44312	1222.45947	843.57397	1204.33875	1216.46741	866.89996	1082.79871	1183.28491	869.69464	963.42389	1204.26221	827.05811	828.07043	1160.87512	865.56293	842.29303	1165.73950	853.89410	756.15784	1585.74927	746.47650	926.53656	1372.23511	699.56677	927.53851	1490.15576	915.45233	942.45166	1349.36853	884.07483	938.82037	1623.98730	859.09601	606.46503	1605.83301	906.38947	477.58725	1598.47852	1017.47217	321.64334	1535.84021	1102.78906	116.85844	1475.92407	1143.60974	106.16123	1548.96655	972.88025	36.79480	1308.44812	677.86902	600.39471	1349.24292	622.40393	458.85306	1341.96265	612.02747	285.35944	1393.31287	556.22534	84.36575	1444.50745	587.62042	30.76322	1400.03430	412.15631	92.47652	1445.44287	675.13129	1697.05981	-3101.93628	1973.29895	1023.43414	-3140.81226	2012.49854	1021.95923						 
23	0.220	1534.56982	669.18469	1658.48547	1422.39880	654.67462	1661.63794	1526.57227	788.46332	1622.21716	1406.47595	775.91345	1624.30237	1476.40515	836.55328	1426.84119	1450.07275	880.89215	1134.90259	1482.97058	693.80298	1354.62378	1491.75696	656.75775	1199.09607	1388.93823	890.46765	1234.08545	1638.73755	764.53302	1387.93799	1732.05371	786.83685	1211.92676	1755.79016	775.58441	1060.07886	1800.65295	689.74170	990.70892	1812.75854	559.04633	945.02094	1825.75769	604.08508	907.66534	1858.46570	531.44208	883.35724	1328.02368	745.89880	1388.06628	1221.86499	832.19257	1202.62927	1216.25525	855.53937	1081.17664	1183.05176	858.90381	961.94678	1204.17761	817.21393	826.33783	1160.68213	855.57690	840.80005	1165.83423	844.40314	754.43762	1586.22681	734.49188	925.68256	1372.68872	686.54248	926.63605	1489.75647	902.94232	941.38501	1349.33875	871.46240	937.47015	1625.28870	848.77380	606.00543	1607.58362	896.51685	477.37427	1600.14539	1010.31458	323.29446	1537.61121	1100.09180	120.13236	1478.05896	1141.45288	111.20819	1549.33850	972.74060	36.79858	1310.42651	662.20801	600.11261	1350.33020	608.90417	457.62872	1343.13562	602.52948	283.15683	1394.79504	551.34424	81.25388	1445.82825	584.37195	29.87555	1400.06531	407.34842	86.33332	1444.33374	664.08783	1696.17847	-3102.00488	1973.11987	1023.89465	-3140.80371	2012.51038	1022.08142						 
24	0.230	1533.45044	658.38391	1657.53711	1421.27271	643.54230	1660.79700	1525.12549	777.54089	1621.20190	1405.13855	764.87836	1623.36768	1475.06543	825.32825	1425.55823	1449.59534	868.59503	1133.40466	1481.76965	682.30853	1353.70789	1491.06543	644.78168	1198.35620	1388.34277	878.52612	1232.41187	1637.37097	753.27319	1387.26160	1731.00781	775.80365	1211.49683	1755.48584	764.79016	1059.92114	1800.68970	678.81683	990.78467	1813.16516	548.10193	945.34064	1826.24756	593.10919	907.94849	1859.30334	520.49292	884.08795	1326.27979	734.41895	1387.02075	1221.18835	820.67853	1200.95654	1215.87097	844.02380	1079.63501	1182.78625	847.86926	960.46045	1204.17871	807.26129	824.58411	1160.53796	845.09265	839.19049	1165.76965	834.59021	752.75226	1586.62500	721.99109	924.69910	1372.91895	673.28351	925.74908	1489.44812	890.05505	940.34369	1349.38586	858.30353	936.04156	1626.67896	838.06488	605.68506	1609.35950	885.86572	476.89523	1602.44238	1002.22058	325.51218	1539.66650	1097.17444	123.80547	1480.23120	1138.78052	116.66083	1549.62366	972.47028	36.76471	1312.25562	647.01392	599.68396	1351.30237	595.69580	456.31708	1344.55444	593.75195	280.93210	1396.30298	547.66010	78.63540	1447.24915	582.93829	28.78097	1400.13940	404.24686	79.22279	1443.09888	653.19159	1695.23523	-3102.06396	1973.12671	1023.42914	-3140.65552	2012.55359	1022.21606						 
25	0.240	1532.21631	647.59204	1656.69824	1420.01050	632.55963	1659.96375	1523.56848	766.65161	1620.19934	1403.56946	753.70459	1622.41516	1473.45410	814.16724	1424.24866	1449.01025	856.15961	1131.85291	1480.44409	670.81317	1352.84473	1490.25684	632.72003	1197.74768	1387.61523	866.40082	1230.57825	1635.89087	742.03271	1386.59070	1730.08667	764.82867	1211.19263	1754.91003	754.15308	1059.49548	1800.66602	668.20935	990.75616	1813.37085	537.50714	945.36298	1826.53271	582.46216	907.99652	1859.65833	509.81531	884.20477	1325.05994	722.97083	1385.57727	1220.47375	809.10504	1199.24854	1215.15271	832.37439	1078.10547	1182.49878	836.60663	958.97784	1203.80090	796.15863	823.02466	1160.28699	834.21289	837.70239	1165.73022	824.20782	751.32617	1586.96448	709.02527	923.73193	1373.17273	659.86835	924.89557	1489.22937	877.00964	939.38507	1349.27759	844.83344	934.57324	1628.01440	826.58099	605.23132	1611.34399	874.48090	476.31021	1604.05725	994.17261	326.80887	1542.14844	1093.97437	128.02574	1482.62976	1135.58325	122.49560	1549.82971	972.13477	36.61996	1314.09595	631.67554	599.14734	1351.31897	583.35089	454.66779	1346.24023	586.12170	278.35770	1398.50659	544.16168	76.11870	1449.48145	581.45062	29.53465	1399.25037	400.79175	70.30950	1441.84656	642.19543	1694.43335	-3101.97485	1972.99756	1024.04028	-3140.72607	2012.61267	1022.18719						 
